<svg width="22" height="22" viewBox="0 0 22 22" fill="none" xmlns="http://www.w3.org/2000/svg">
<path d="M11.0001 0.439941C5.16786 0.439941 0.440063 5.16774 0.440063 10.9999C0.440063 16.8321 5.16786 21.5599 11.0001 21.5599C16.8323 21.5599 21.5601 16.8321 21.5601 10.9999C21.5601 5.16774 16.8323 0.439941 11.0001 0.439941ZM15.0613 12.354C15.0613 12.354 15.9952 13.2758 16.2251 13.7037C16.2317 13.7125 16.235 13.7213 16.2372 13.7257C16.3307 13.883 16.3527 14.0051 16.3065 14.0964C16.2295 14.2482 15.9655 14.323 15.8753 14.3296H14.2253C14.1109 14.3296 13.8711 14.2999 13.5807 14.0997C13.3574 13.9435 13.1374 13.6872 12.9229 13.4375C12.6028 13.0657 12.3256 12.7445 12.0462 12.7445C12.0107 12.7445 11.9754 12.75 11.9417 12.761C11.7305 12.8292 11.4599 13.1306 11.4599 13.9336C11.4599 14.1844 11.2619 14.3285 11.1222 14.3285H10.3665C10.1091 14.3285 8.76816 14.2383 7.58016 12.9854C6.12596 11.4509 4.81696 8.37314 4.80596 8.34454C4.72346 8.14544 4.89396 8.03874 5.07986 8.03874H6.74636C6.96856 8.03874 7.04116 8.17404 7.09176 8.29394C7.15116 8.43364 7.36896 8.98914 7.72646 9.61394C8.30616 10.6325 8.66146 11.0461 8.94636 11.0461C8.99978 11.0455 9.05225 11.0319 9.09926 11.0065C9.47106 10.7997 9.40176 9.47424 9.38526 9.19924C9.38526 9.14754 9.38416 8.60634 9.19386 8.34674C9.05746 8.15864 8.82536 8.08714 8.68456 8.06074C8.74155 7.9821 8.81663 7.91834 8.90346 7.87484C9.15866 7.74724 9.61846 7.72854 10.075 7.72854H10.3291C10.8241 7.73514 10.9517 7.76704 11.131 7.81214C11.494 7.89904 11.5017 8.13334 11.4698 8.93524C11.4599 9.16294 11.45 9.42034 11.45 9.72394C11.45 9.78994 11.4467 9.86034 11.4467 9.93514C11.4357 10.3432 11.4225 10.8063 11.7107 10.9966C11.7483 11.0202 11.7917 11.0328 11.8361 11.0329C11.9362 11.0329 12.2376 11.0329 13.0538 9.63264C13.3055 9.18192 13.5242 8.71356 13.7083 8.23124C13.7248 8.20264 13.7732 8.11464 13.8304 8.08054C13.8726 8.05902 13.9194 8.04807 13.9668 8.04864H15.9259C16.1393 8.04864 16.2856 8.08054 16.3131 8.16304C16.3615 8.29394 16.3043 8.69324 15.41 9.90434L15.0107 10.4312C14.2 11.4938 14.2 11.5477 15.0613 12.354Z" fill="#1F1F1F"/>
</svg>
