<svg width="24" height="24" viewBox="0 0 24 24" fill="none" xmlns="http://www.w3.org/2000/svg">
<path d="M11.9998 0C5.37257 0 0 5.37273 0 12C0 18.627 5.37257 24.0002 11.9998 24.0002C18.627 24.0002 24 18.627 24 12C24 5.37273 18.627 0 11.9998 0ZM12 4.21495L19.1012 8.64303H4.89888L12 4.21495ZM19.1897 15.7141H19.189C19.189 16.4244 18.6133 16.9999 17.9032 16.9999H6.0969C5.38665 16.9999 4.81112 16.4243 4.81112 15.7141V8.92479C4.81112 8.84967 4.8188 8.77663 4.83128 8.70487L11.616 12.9356C11.6244 12.9408 11.6332 12.9443 11.6418 12.9491C11.6508 12.9541 11.6599 12.9589 11.669 12.9634C11.7169 12.9881 11.7663 13.0081 11.8168 13.0211C11.822 13.0225 11.8272 13.0232 11.8324 13.0244C11.8877 13.0374 11.9438 13.0456 11.9998 13.0456H12.0002C12.0006 13.0456 12.001 13.0456 12.001 13.0456C12.057 13.0456 12.1131 13.0377 12.1684 13.0244C12.1736 13.0231 12.1788 13.0225 12.184 13.0211C12.2344 13.0081 12.2836 12.9881 12.3318 12.9634C12.3409 12.9589 12.35 12.9541 12.359 12.9491C12.3675 12.9443 12.3764 12.9408 12.3848 12.9356L19.1695 8.70487C19.182 8.77663 19.1897 8.84951 19.1897 8.92479V15.7141Z" fill="#164194"/>
</svg>
